<?xml version="1.0" encoding="UTF-8"?>
<svg width="1024" height="1024" viewBox="0 0 1024 1024" xmlns="http://www.w3.org/2000/svg">
  <defs>
    <!-- Background gradient -->
    <linearGradient id="backgroundGradient" x1="0%" y1="0%" x2="100%" y2="100%">
      <stop offset="0%" style="stop-color:#667eea;stop-opacity:1" />
      <stop offset="50%" style="stop-color:#764ba2;stop-opacity:1" />
      <stop offset="100%" style="stop-color:#764ba2;stop-opacity:1" />
    </linearGradient>

    <!-- Infinity gradient - white to soft purple -->
    <linearGradient id="infinityGradient" x1="0%" y1="50%" x2="100%" y2="50%">
      <stop offset="0%" style="stop-color:#ffffff;stop-opacity:1" />
      <stop offset="25%" style="stop-color:#f8faff;stop-opacity:1" />
      <stop offset="50%" style="stop-color:#ffffff;stop-opacity:1" />
      <stop offset="75%" style="stop-color:#f8faff;stop-opacity:1" />
      <stop offset="100%" style="stop-color:#ffffff;stop-opacity:1" />
    </linearGradient>

    <!-- Shadow for depth -->
    <filter id="infinityShadow">
      <feGaussianBlur in="SourceAlpha" stdDeviation="10"/>
      <feOffset dx="0" dy="8" result="offsetblur"/>
      <feFlood flood-color="#000000" flood-opacity="0.2"/>
      <feComposite in2="offsetblur" operator="in"/>
      <feMerge>
        <feMergeNode/>
        <feMergeNode in="SourceGraphic"/>
      </feMerge>
    </filter>

    <!-- Inner glow -->
    <filter id="innerGlow">
      <feGaussianBlur stdDeviation="4" result="coloredBlur"/>
      <feMerge>
        <feMergeNode in="coloredBlur"/>
        <feMergeNode in="SourceGraphic"/>
      </feMerge>
    </filter>
  </defs>

  <!-- Background with iOS rounded corners -->
  <rect width="1024" height="1024" rx="230" ry="230" fill="url(#backgroundGradient)"/>

  <!-- Subtle radial glow in center -->
  <circle cx="512" cy="512" r="400" fill="url(#backgroundGradient)" opacity="0.3" filter="url(#innerGlow)"/>

  <!-- Infinity Book Symbol -->
  <g transform="translate(512, 512)">

    <!-- The infinity shape made of two loops that look like book pages -->
    <path d="
      M -200 0
      C -200 -100, -100 -140, 0 -140
      C 50 -140, 100 -120, 150 -80
      L 180 -60
      C 230 -30, 280 0, 280 0
      C 280 0, 230 30, 180 60
      L 150 80
      C 100 120, 50 140, 0 140
      C -100 140, -200 100, -200 0
      Z

      M 200 0
      C 200 100, 100 140, 0 140
      C -50 140, -100 120, -150 80
      L -180 60
      C -230 30, -280 0, -280 0
      C -280 0, -230 -30, -180 -60
      L -150 -80
      C -100 -120, -50 -140, 0 -140
      C 100 -140, 200 -100, 200 0
      Z"
      fill="none"
      stroke="url(#infinityGradient)"
      stroke-width="80"
      stroke-linecap="round"
      stroke-linejoin="round"
      filter="url(#infinityShadow)"
      opacity="0.95"/>

    <!-- Center pages detail - vertical lines suggesting book spine/pages -->
    <g opacity="0.6">
      <rect x="-8" y="-100" width="3" height="200" fill="white" rx="1.5"/>
      <rect x="0" y="-100" width="3" height="200" fill="white" rx="1.5"/>
      <rect x="8" y="-100" width="3" height="200" fill="white" rx="1.5"/>
    </g>

    <!-- Subtle page texture on left loop -->
    <g opacity="0.3">
      <rect x="-180" y="-40" width="60" height="3" fill="white" rx="1.5" transform="rotate(-20 -150 0)"/>
      <rect x="-180" y="-20" width="50" height="3" fill="white" rx="1.5" transform="rotate(-20 -150 0)"/>
      <rect x="-180" y="0" width="55" height="3" fill="white" rx="1.5" transform="rotate(-20 -150 0)"/>
      <rect x="-180" y="20" width="45" height="3" fill="white" rx="1.5" transform="rotate(-20 -150 0)"/>
    </g>

    <!-- Subtle page texture on right loop -->
    <g opacity="0.3">
      <rect x="120" y="-40" width="60" height="3" fill="white" rx="1.5" transform="rotate(20 150 0)"/>
      <rect x="130" y="-20" width="50" height="3" fill="white" rx="1.5" transform="rotate(20 150 0)"/>
      <rect x="125" y="0" width="55" height="3" fill="white" rx="1.5" transform="rotate(20 150 0)"/>
      <rect x="135" y="20" width="45" height="3" fill="white" rx="1.5" transform="rotate(20 150 0)"/>
    </g>
  </g>

  <!-- Accent highlight dot -->
  <circle cx="512" cy="512" r="12" fill="#f093fb" opacity="0.8"/>
</svg>